General
Complete name                    : D:\Iztegleni\WWE SmackDown 22 april 2011.x264-spyke1998\2.avi
Format                           : AVI
Format/Info                      : Audio Video Interleave
File size                        : 131 MiB
Duration                         : 20mn 2s
Overall bit rate                 : 916 Kbps
Writing application              : MEncoder SVN-r30881(20100311-gcc4.3.3)
Writing library                  : MPlayer

Video
Format                           : avc1
Codec ID                         : avc1
Duration                         : 20mn 2s
Bit rate                         : 775 Kbps
Width                            : 320 pixels
Height                           : 180 pixels
Display aspect ratio             : 16:9
Frame rate                       : 23.976 fps
Bits/(Pixel*Frame)               : 0.561
Stream size                      : 111 MiB (85%)

Audio
ID                               : 1
Format                           : MPEG Audio
Format version                   : Version 1
Format profile                   : Layer 3
Format_Settings_Mode             : Joint stereo
Format_Settings_ModeExtension    : MS Stereo
Codec ID                         : 55
Codec ID/Hint                    : MP3
Duration                         : 20mn 0s
Bit rate mode                    : Constant
Bit rate                         : 128 Kbps
Channel(s)                       : 2 channels
Sampling rate                    : 48.0 KHz
Stream size                      : 18.3 MiB (14%)
Alignment                        : Aligned on interleaves
Interleave, duration             : 24 ms (0.58 video frame)
Interleave, preload duration     : 504 ms

